<svg width="24" height="24" viewBox="0 0 24 24" fill="none" xmlns="http://www.w3.org/2000/svg">
<g clip-path="url(#clip0_45_923)">
<path d="M22.1371 11.3805C21.5082 10.9142 20.7355 10.5719 19.9197 10.3873C19.7858 10.3572 19.6632 10.2896 19.5662 10.1924C19.4692 10.0952 19.4019 9.97238 19.3721 9.83836C19.0217 8.27732 18.2675 6.93865 17.1588 5.92432C15.87 4.74332 14.1657 4.09375 12.3594 4.09375C10.7714 4.09375 9.30469 4.59148 8.1201 5.5335C7.31726 6.17294 6.67104 6.98725 6.23068 7.91436C6.18294 8.01579 6.11213 8.10466 6.02391 8.17385C5.93569 8.24303 5.83251 8.29062 5.72262 8.31281C4.52096 8.55539 3.43609 9.07064 2.60773 9.80062C1.46402 10.8114 0.859375 12.155 0.859375 13.6891C0.859375 15.2398 1.51029 16.6539 2.69174 17.6763C3.82018 18.6507 5.33943 19.1875 6.96875 19.1875H11.6406C11.6406 19.1875 11.6406 18.5093 11.6406 18.0748C11.6406 15.8187 11.6406 12.2978 11.6406 12.2978L9.99244 13.946C9.92363 14.0148 9.84157 14.0689 9.75122 14.1051C9.66088 14.1412 9.56414 14.1587 9.46686 14.1563C9.36958 14.1539 9.27379 14.1319 9.1853 14.0914C9.09681 14.0509 9.01745 13.9929 8.95205 13.9209C8.6915 13.6347 8.71666 13.1886 8.99023 12.9151L11.8513 10.0544C11.9861 9.91974 12.1688 9.84408 12.3594 9.84408C12.5499 9.84408 12.7327 9.91974 12.8674 10.0544L15.7285 12.9142C16.0106 13.1967 16.0268 13.6599 15.746 13.9433C15.6794 14.0106 15.6002 14.064 15.5129 14.1006C15.4255 14.1372 15.3319 14.1561 15.2372 14.1564C15.1425 14.1566 15.0487 14.1382 14.9612 14.1021C14.8737 14.066 14.7942 14.0129 14.7272 13.946L13.0781 12.2978V18.0748V19.1875H18.6484C20.0563 19.1875 21.3397 18.7922 22.2624 18.0748C23.3073 17.2617 23.8594 16.0982 23.8594 14.7133C23.8594 13.3683 23.2637 12.2152 22.1371 11.3805Z" fill="white"/>
<path d="M11.6406 19.1875H13.0781V18.0748C13.0781 18.0748 12.3594 18.7307 11.6406 18.0748C11.6406 18.5093 11.6406 19.1875 11.6406 19.1875Z" fill="white"/>
</g>
<defs>
<clipPath id="clip0_45_923">
<rect width="23" height="23" fill="white" transform="translate(0.5 0.5)"/>
</clipPath>
</defs>
</svg>
