<svg width="135" height="135" viewBox="0 0 135 135" fill="none" xmlns="http://www.w3.org/2000/svg">
<path d="M0 0.000268456H134.879V134.879H0V0.000268456Z" fill="white"/>
<path d="M107 100.676H117.116V107.42H107V100.676Z" fill="#F14742"/>
<path d="M43.9707 54.0857H60.8307V60.8311H43.9707V54.0857Z" fill="#E3835A"/>
<path d="M117.116 40.1158V100.811H107V40.1158L111.991 29.9999L117.116 40.1158Z" fill="#3C3B3D"/>
<path d="M70.9467 33.8553V45.7246H43.9707V33.8553H52.7374C52.6027 33.3153 52.4681 32.7766 52.4681 32.1019C52.4681 29.2699 54.7614 26.9766 57.5934 26.9766C60.4254 26.9766 62.7187 29.2699 62.7187 32.1019C62.7187 32.6406 62.584 33.3153 62.4494 33.8553H70.9467Z" fill="#808080"/>
<path d="M77.9596 97.9219H36.9569C36.0129 97.9219 35.2036 97.1125 35.2036 96.1685V43.9712C35.2036 43.0272 36.0129 42.2178 36.9569 42.2178C37.9009 42.2178 38.7103 43.0272 38.7103 43.9712V94.5512H76.3409V43.9712C76.3409 43.0272 77.1503 42.2178 78.0943 42.2178C79.0383 42.2178 79.8476 43.0272 79.8476 43.9712V96.3045C79.7129 97.2485 78.9036 97.9219 77.9596 97.9219Z" fill="#AFB9D2"/>
<path d="M86.1877 106.649H28.8637C27.9197 106.649 27.1104 105.841 27.1104 104.897V34.0854C27.1104 33.1414 27.9197 32.332 28.8637 32.332H37.361C38.305 32.332 39.1143 33.1414 39.1143 34.0854C39.1143 35.0294 38.305 35.8387 37.361 35.8387H30.617V103.277H84.569V35.8387H77.825C76.881 35.8387 76.0717 35.0294 76.0717 34.0854C76.0717 33.1414 76.881 32.332 77.825 32.332H86.3224C87.2664 32.332 88.0757 33.1414 88.0757 34.0854V104.897C87.805 105.841 87.1317 106.649 86.1877 106.649Z" fill="#D7DEED"/>
<path d="M70.9466 69.3281H43.9706C43.0266 69.3281 42.2173 68.5188 42.2173 67.5748C42.2173 66.6308 43.0266 65.8215 43.9706 65.8215H70.9466C71.8906 65.8215 72.7 66.6308 72.7 67.5748C72.7 68.5188 71.8906 69.3281 70.9466 69.3281Z" fill="#65B2FE"/>
<path d="M70.9466 76.0723H43.9706C43.0266 76.0723 42.2173 75.2629 42.2173 74.3189C42.2173 73.3736 43.0266 72.5643 43.9706 72.5643H70.9466C71.8906 72.5643 72.7 73.3736 72.7 74.3189C72.7 75.2629 71.8906 76.0723 70.9466 76.0723Z" fill="#65B2FE"/>
<path d="M70.9466 82.8164H43.9706C43.0266 82.8164 42.2173 82.0057 42.2173 81.0617C42.2173 80.1177 43.0266 79.3084 43.9706 79.3084H70.9466C71.8906 79.3084 72.7 80.1177 72.7 81.0617C72.7 82.0057 71.8906 82.8164 70.9466 82.8164Z" fill="#65B2FE"/>
<path d="M70.9466 89.5586H43.9706C43.0266 89.5586 42.2173 88.7506 42.2173 87.8053C42.2173 86.8613 43.0266 86.0533 43.9706 86.0533H70.9466C71.8906 86.0533 72.7 86.8613 72.7 87.8053C72.7 88.7506 71.8906 89.5586 70.9466 89.5586Z" fill="#65B2FE"/>
<path d="M97.6213 32.0039C96.6773 32.0039 95.8693 31.1933 95.8693 30.2493V23.5066H85.7533C84.8093 23.5066 84 22.6959 84 21.7519C84 20.8079 84.8093 19.9999 85.7533 19.9999H97.6213C98.5667 19.9999 99.376 20.8079 99.376 21.7519V30.2493C99.2413 31.1933 98.432 32.0039 97.6213 32.0039Z" fill="#EF727A"/>
<path d="M25.2507 114.869H16.7533C15.8093 114.869 15 114.06 15 113.116V104.753C15 103.809 15.8093 103 16.7533 103C17.6973 103 18.5067 103.809 18.5067 104.753V111.497H25.2507C26.1947 111.497 27.004 112.306 27.004 113.25C27.004 114.06 26.1947 114.869 25.2507 114.869Z" fill="#EF727A"/>
</svg>
