<svg width="24" height="23" viewBox="0 0 24 23" fill="none" xmlns="http://www.w3.org/2000/svg">
<path d="M21.6226 18.9609H24.0001V20.5459H21.6226V18.9609Z" fill="#F14742"/>
<path d="M6.80908 8.01135H10.7716V9.59668H6.80908V8.01135Z" fill="#E3835A"/>
<path d="M24.0001 4.7273V18.9922H21.6226V4.7273L22.7955 2.34978L24.0001 4.7273Z" fill="#3C3B3D"/>
<path d="M13.1492 3.25629V6.0459H6.80908V3.25629H8.86948C8.83783 3.12937 8.80619 3.00276 8.80619 2.84419C8.80619 2.1786 9.34518 1.6396 10.0108 1.6396C10.6764 1.6396 11.2154 2.1786 11.2154 2.84419C11.2154 2.97079 11.1837 3.12937 11.1521 3.25629H13.1492Z" fill="#808080"/>
<path d="M14.7973 18.3135H5.16062C4.93875 18.3135 4.74854 18.1232 4.74854 17.9014V5.63361C4.74854 5.41175 4.93875 5.22154 5.16062 5.22154C5.38248 5.22154 5.5727 5.41175 5.5727 5.63361V17.5213H14.4169V5.63361C14.4169 5.41175 14.6071 5.22154 14.829 5.22154C15.0509 5.22154 15.2411 5.41175 15.2411 5.63361V17.9333C15.2094 18.1552 15.0192 18.3135 14.7973 18.3135Z" fill="#AFB9D2"/>
<path d="M16.7309 20.3652H3.25827C3.0364 20.3652 2.84619 20.1753 2.84619 19.9535V3.31075C2.84619 3.08889 3.0364 2.89866 3.25827 2.89866H5.25537C5.47724 2.89866 5.66745 3.08889 5.66745 3.31075C5.66745 3.53262 5.47724 3.72283 5.25537 3.72283H3.67035V19.5727H16.3505V3.72283H14.7655C14.5436 3.72283 14.3534 3.53262 14.3534 3.31075C14.3534 3.08889 14.5436 2.89866 14.7655 2.89866H16.7626C16.9845 2.89866 17.1747 3.08889 17.1747 3.31075V19.9535C17.1111 20.1753 16.9528 20.3652 16.7309 20.3652Z" fill="#D7DEED"/>
<path d="M13.1491 11.5938H6.80905C6.58718 11.5938 6.39697 11.4035 6.39697 11.1817C6.39697 10.9598 6.58718 10.7696 6.80905 10.7696H13.1491C13.371 10.7696 13.5612 10.9598 13.5612 11.1817C13.5612 11.4035 13.371 11.5938 13.1491 11.5938Z" fill="#65B2FE"/>
<path d="M13.1491 13.1787H6.80905C6.58718 13.1787 6.39697 12.9885 6.39697 12.7666C6.39697 12.5445 6.58718 12.3542 6.80905 12.3542H13.1491C13.371 12.3542 13.5612 12.5445 13.5612 12.7666C13.5612 12.9885 13.371 13.1787 13.1491 13.1787Z" fill="#65B2FE"/>
<path d="M13.1491 14.7637H6.80905C6.58718 14.7637 6.39697 14.5731 6.39697 14.3513C6.39697 14.1294 6.58718 13.9392 6.80905 13.9392H13.1491C13.371 13.9392 13.5612 14.1294 13.5612 14.3513C13.5612 14.5731 13.371 14.7637 13.1491 14.7637Z" fill="#65B2FE"/>
<path d="M13.1491 16.3477H6.80905C6.58718 16.3477 6.39697 16.1578 6.39697 15.9356C6.39697 15.7137 6.58718 15.5238 6.80905 15.5238H13.1491C13.371 15.5238 13.5612 15.7137 13.5612 15.9356C13.5612 16.1578 13.371 16.3477 13.1491 16.3477Z" fill="#65B2FE"/>
<path d="M19.4182 2.82129C19.1963 2.82129 19.0064 2.63076 19.0064 2.4089V0.824189H16.6289C16.407 0.824189 16.2168 0.633663 16.2168 0.411798C16.2168 0.189932 16.407 3.40311e-05 16.6289 3.40311e-05H19.4182C19.6404 3.40311e-05 19.8306 0.189932 19.8306 0.411798V2.4089C19.7989 2.63076 19.6087 2.82129 19.4182 2.82129Z" fill="#EF727A"/>
<path d="M2.40918 22.2969H0.412081C0.190216 22.2969 0 22.1067 0 21.8848V19.9193C0 19.6975 0.190216 19.5073 0.412081 19.5073C0.633946 19.5073 0.824162 19.6975 0.824162 19.9193V21.5044H2.40918C2.63105 21.5044 2.82126 21.6946 2.82126 21.9164C2.82126 22.1067 2.63105 22.2969 2.40918 22.2969Z" fill="#EF727A"/>
</svg>
