<svg width="135" height="135" viewBox="0 0 135 135" fill="none" xmlns="http://www.w3.org/2000/svg">
<path d="M0 0.000274658H134.879V134.879H0V0.000274658Z" fill="white"/>
<path d="M0 0.000274658H134.879V134.879H0V0.000274658Z" fill="white"/>
<path d="M77.0158 38.3034V45.0488H56.7838V88.8848H28.1904V28.1888H66.2251V38.3034H77.0158Z" fill="#EFEBDE"/>
<path d="M94.6854 55.0294V44.9134H56.6494V105.609H105.609V76.88V55.0294H94.6854Z" fill="#ECF0F1"/>
<path d="M66.0903 88.7492H96.033V95.4932H66.0903V88.7492Z" fill="#E3835A"/>
<path d="M83.625 55.029H86.997V58.4023H83.625V55.029Z" fill="#57606F"/>
<path d="M76.8813 55.029H80.2534V58.4023H76.8813V55.029Z" fill="#57606F"/>
<path d="M70.1372 55.029H73.5092V58.4023H70.1372V55.029Z" fill="#57606F"/>
<path d="M93.3361 65.1455H66.0908C65.1468 65.1455 64.3374 64.3375 64.3374 63.3935C64.3374 62.4495 65.1468 61.6388 66.0908 61.6388H93.2014C94.1454 61.6388 94.9548 62.4495 94.9548 63.3935C94.9548 64.3375 94.2801 65.1455 93.3361 65.1455Z" fill="#65B2FE"/>
<path d="M77.0161 73.5088H66.0908C65.1468 73.5088 64.3374 72.6981 64.3374 71.7541C64.3374 70.8101 65.2814 70.1354 66.0908 70.1354H77.0161C77.9601 70.1354 78.7694 70.9461 78.7694 71.8901C78.7694 72.8341 77.9601 73.5088 77.0161 73.5088Z" fill="#65B2FE"/>
<path d="M94.685 73.5088H83.7597C82.8157 73.5088 82.0063 72.6981 82.0063 71.7541C82.0063 70.8101 82.8157 70.0008 83.7597 70.0008H94.685C95.629 70.0008 96.4383 70.8101 96.4383 71.7541C96.4383 72.6981 95.629 73.5088 94.685 73.5088Z" fill="#65B2FE"/>
<path d="M96.0334 82.0068H66.0908C65.1468 82.0068 64.3374 81.1962 64.3374 80.2522C64.3374 79.3082 65.1468 78.4989 66.0908 78.4989H96.0334C96.9774 78.4989 97.7867 79.3082 97.7867 80.2522C97.7867 81.1962 96.9774 82.0068 96.0334 82.0068Z" fill="#65B2FE"/>
<path d="M105.609 38.1709C104.665 38.1709 103.857 37.3602 103.857 36.4162V29.6736H93.7411C92.7971 29.6736 91.9878 28.8629 91.9878 27.9189C91.9878 26.9749 92.7971 26.1669 93.7411 26.1669H105.609C106.554 26.1669 107.364 26.9749 107.364 27.9189V36.4162C107.229 37.3602 106.42 38.1709 105.609 38.1709Z" fill="#EF727A"/>
<path d="M36.4172 107.228H27.9198C26.9758 107.228 26.1665 106.418 26.1665 105.474V97.1115C26.1665 96.1675 26.9758 95.3582 27.9198 95.3582C28.8638 95.3582 29.6732 96.1675 29.6732 97.1115V103.856H36.4172C37.3612 103.856 38.1705 104.665 38.1705 105.609C38.1705 106.418 37.3612 107.228 36.4172 107.228Z" fill="#EF727A"/>
<path d="M82.5001 85.9998C78.3996 85.9998 75 89.3994 75 93.4999C75 97.5994 78.3996 101 82.5001 101C83.9997 101 85.3007 100.6 86.5008 99.8997C87.9006 98.9991 89.1007 97.5994 89.6009 95.9999C89.9004 95.1992 90.0002 94.3994 90.0002 93.5997C90.0002 89.3994 86.5996 85.9998 82.5001 85.9998Z" fill="#3C3B3D"/>
<path d="M86.2 93.4998C86.2 93.8992 86.0992 94.2995 86.0004 94.6999C85.6998 95.4996 85.1996 96.1996 84.3999 96.6998C83.7999 97.0991 83.1 97.2998 82.4001 97.2998C80.2994 97.2998 78.6001 95.5995 78.6001 93.4998C78.6001 91.3992 80.2994 89.6999 82.4001 89.6999C84.4997 89.6999 86.2 91.499 86.2 93.4998Z" fill="#E3835A"/>
<path d="M86.3003 99.7989C87.7011 98.8994 88.9012 97.4996 89.4004 95.8992L95.3 101.8C95.8002 102.3 95.9999 102.9 95.9999 103.6C95.9999 104.199 95.8002 104.9 95.3 105.399C94.2996 106.4 92.7002 106.4 91.8006 105.399L86.3003 99.7989Z" fill="#2D2C2E"/>
</svg>
