<svg width="24" height="24" viewBox="0 0 24 24" fill="none" xmlns="http://www.w3.org/2000/svg">
<path d="M15.0298 3.58744V5.5812H9.04966V18.5381H0.598145V0.597786H11.8403V3.58744H15.0298Z" fill="#EFEBDE"/>
<path d="M20.2528 8.5312V5.54115H9.01025V23.4814H23.4817V14.9897V8.5312H20.2528Z" fill="#ECF0F1"/>
<path d="M11.8008 18.4978H20.6511V20.4912H11.8008V18.4978Z" fill="#E3835A"/>
<path d="M16.9834 8.53125H17.9801V9.52832H16.9834V8.53125Z" fill="#57606F"/>
<path d="M14.9902 8.53125H15.9869V9.52832H14.9902V8.53125Z" fill="#57606F"/>
<path d="M12.9966 8.53125H13.9933V9.52832H12.9966V8.53125Z" fill="#57606F"/>
<path d="M19.8536 11.5215H11.8005C11.5215 11.5215 11.2822 11.2827 11.2822 11.0036C11.2822 10.7246 11.5215 10.485 11.8005 10.485H19.8138C20.0928 10.485 20.332 10.7246 20.332 11.0036C20.332 11.2827 20.1326 11.5215 19.8536 11.5215Z" fill="#65B2FE"/>
<path d="M15.0297 13.9932H11.8005C11.5215 13.9932 11.2822 13.7536 11.2822 13.4745C11.2822 13.1955 11.5613 12.9961 11.8005 12.9961H15.0297C15.3088 12.9961 15.548 13.2357 15.548 13.5147C15.548 13.7938 15.3088 13.9932 15.0297 13.9932Z" fill="#65B2FE"/>
<path d="M20.2524 13.9932H17.0231C16.7441 13.9932 16.5049 13.7536 16.5049 13.4745C16.5049 13.1955 16.7441 12.9563 17.0231 12.9563H20.2524C20.5314 12.9563 20.7706 13.1955 20.7706 13.4745C20.7706 13.7536 20.5314 13.9932 20.2524 13.9932Z" fill="#65B2FE"/>
<path d="M20.6508 16.5049H11.8005C11.5215 16.5049 11.2822 16.2653 11.2822 15.9862C11.2822 15.7072 11.5215 15.468 11.8005 15.468H20.6508C20.9298 15.468 21.1691 15.7072 21.1691 15.9862C21.1691 16.2653 20.9298 16.5049 20.6508 16.5049Z" fill="#65B2FE"/>
<path d="M23.4812 3.54785C23.2022 3.54785 22.9634 3.30824 22.9634 3.02922V1.03624H19.9733C19.6943 1.03624 19.4551 0.796631 19.4551 0.517607C19.4551 0.238583 19.6943 -0.000238261 19.9733 -0.000238261H23.4812C23.7606 -0.000238261 23.9999 0.238583 23.9999 0.517607V3.02922C23.9601 3.30824 23.7208 3.54785 23.4812 3.54785Z" fill="#EF727A"/>
<path d="M3.02985 23.96H0.518245C0.239221 23.96 0 23.7207 0 23.4417V20.9699C0 20.6909 0.239221 20.4517 0.518245 20.4517C0.797269 20.4517 1.03649 20.6909 1.03649 20.9699V22.9633H3.02985C3.30888 22.9633 3.5481 23.2025 3.5481 23.4815C3.5481 23.7207 3.30888 23.96 3.02985 23.96Z" fill="#EF727A"/>
<path d="M16.6509 17.6844C15.4389 17.6844 14.4341 18.6893 14.4341 19.9013C14.4341 21.113 15.4389 22.1182 16.6509 22.1182C17.0942 22.1182 17.4787 21.9998 17.8334 21.7929C18.2472 21.5268 18.6019 21.113 18.7498 20.6403C18.8383 20.4036 18.8678 20.1672 18.8678 19.9308C18.8678 18.6893 17.8627 17.6844 16.6509 17.6844Z" fill="#3C3B3D"/>
<path d="M17.7444 19.9012C17.7444 20.0193 17.7146 20.1376 17.6854 20.2559C17.5966 20.4923 17.4487 20.6992 17.2123 20.8471C17.035 20.9651 16.8281 21.0244 16.6212 21.0244C16.0003 21.0244 15.498 20.5218 15.498 19.9012C15.498 19.2803 16.0003 18.7781 16.6212 18.7781C17.2418 18.7781 17.7444 19.3098 17.7444 19.9012Z" fill="#E3835A"/>
<path d="M17.7744 21.7636C18.1884 21.4977 18.5432 21.0839 18.6907 20.6109L20.4345 22.355C20.5824 22.5028 20.6414 22.6802 20.6414 22.8871C20.6414 23.0641 20.5824 23.2713 20.4345 23.4189C20.1388 23.7145 19.6661 23.7145 19.4002 23.4189L17.7744 21.7636Z" fill="#2D2C2E"/>
</svg>
